<svg width="21" height="20" viewBox="0 0 21 20" fill="none" xmlns="http://www.w3.org/2000/svg">
<path fill-rule="evenodd" clip-rule="evenodd" d="M2.83337 0C1.7288 0 0.833374 0.89543 0.833374 2V3C0.833374 4.10457 1.7288 5 2.83337 5H3.83337C4.93794 5 5.83337 4.10457 5.83337 3V2C5.83337 0.895431 4.93794 0 3.83337 0H2.83337ZM10.3334 0C9.2288 0 8.33337 0.89543 8.33337 2V3C8.33337 4.10457 9.22881 5 10.3334 5H18.8334C19.9379 5 20.8334 4.10457 20.8334 3V2C20.8334 0.895431 19.9379 0 18.8334 0H10.3334ZM8.33337 9.5C8.33337 8.39543 9.2288 7.5 10.3334 7.5H18.8334C19.9379 7.5 20.8334 8.39543 20.8334 9.5V10.5C20.8334 11.6046 19.9379 12.5 18.8334 12.5H10.3334C9.22881 12.5 8.33337 11.6046 8.33337 10.5V9.5ZM10.3334 15C9.2288 15 8.33337 15.8954 8.33337 17V18C8.33337 19.1046 9.22881 20 10.3334 20H18.8334C19.9379 20 20.8334 19.1046 20.8334 18V17C20.8334 15.8954 19.9379 15 18.8334 15H10.3334ZM0.833374 17C0.833374 15.8954 1.7288 15 2.83337 15H3.83337C4.93794 15 5.83337 15.8954 5.83337 17V18C5.83337 19.1046 4.93794 20 3.83337 20H2.83337C1.7288 20 0.833374 19.1046 0.833374 18V17ZM2.83337 7.5C1.7288 7.5 0.833374 8.39543 0.833374 9.5V10.5C0.833374 11.6046 1.7288 12.5 2.83337 12.5H3.83337C4.93794 12.5 5.83337 11.6046 5.83337 10.5V9.5C5.83337 8.39543 4.93794 7.5 3.83337 7.5H2.83337Z" fill="#D9D9D9"/>
</svg>
