<svg width="20" height="20" viewBox="0 0 20 20" fill="none" xmlns="http://www.w3.org/2000/svg">
<path fill-rule="evenodd" clip-rule="evenodd" d="M0 2C0 0.89543 0.895431 0 2 0H18C19.1046 0 20 0.895431 20 2V3C20 4.10457 19.1046 5 18 5H2C0.895431 5 0 4.10457 0 3V2ZM0 17C0 15.8954 0.895431 15 2 15H18C19.1046 15 20 15.8954 20 17V18C20 19.1046 19.1046 20 18 20H2C0.895431 20 0 19.1046 0 18V17ZM2 7.5C0.895431 7.5 0 8.39543 0 9.5V10.5C0 11.6046 0.895431 12.5 2 12.5H18C19.1046 12.5 20 11.6046 20 10.5V9.5C20 8.39543 19.1046 7.5 18 7.5H2Z" fill="#D9D9D9"/>
</svg>
